<?xml version="1.0" encoding="UTF-8" standalone="no"?>
<svg width="23px" height="24px" viewBox="0 0 23 24" version="1.1" xmlns="http://www.w3.org/2000/svg" xmlns:xlink="http://www.w3.org/1999/xlink">
    <!-- Generator: Sketch 3.6.1 (26313) - http://www.bohemiancoding.com/sketch -->
    <title>Group 6</title>
    <desc>Created with Sketch.</desc>
    <defs></defs>
    <g id="Page-1" stroke="none" stroke-width="1" fill="none" fill-rule="evenodd">
        <g id="Iphone-6" transform="translate(-331.000000, -38.000000)" fill="#FFFFFF">
            <g id="Group-6" transform="translate(331.000000, 38.500000)">
                <path d="M14.2819062,16.0592791 C12.7896682,17.1821877 10.9338386,17.84774 8.92258335,17.84774 C3.99477664,17.84774 5.68434189e-14,13.8523873 5.68434189e-14,8.92386998 C5.68434189e-14,3.99535268 3.99477664,-1.42108547e-14 8.92258335,-1.42108547e-14 C13.8503901,-1.42108547e-14 17.8451667,3.99535268 17.8451667,8.92386998 C17.8451667,10.9354401 17.179694,12.7915583 16.0569222,14.2840208 C16.1982204,14.349532 16.3311228,14.4410341 16.4487897,14.5587011 L22.5745614,20.6844727 C23.100809,21.2107204 23.107351,22.0573944 22.5810342,22.5837113 C22.0583613,23.1063841 21.2141519,23.1095948 20.6817956,22.5772385 L14.556024,16.4514668 C14.4388275,16.3342703 14.3474065,16.2011819 14.2819062,16.0592791 Z M8.92258335,16.062966 C12.8648287,16.062966 16.06065,12.8666838 16.06065,8.92386998 C16.06065,4.98105614 12.8648287,1.784774 8.92258335,1.784774 C4.98033798,1.784774 1.78451667,4.98105614 1.78451667,8.92386998 C1.78451667,12.8666838 4.98033798,16.062966 8.92258335,16.062966 Z" id="Search-Icon"></path>
            </g>
        </g>
    </g>
</svg>