<svg class="icn-cupworld" width="15px" height="28px" viewBox="0 0 15 28" version="1.1" xmlns="http://www.w3.org/2000/svg" xmlns:xlink="http://www.w3.org/1999/xlink">
    <g  stroke="none" stroke-width="1" fill="none" fill-rule="evenodd">
        <g transform="translate(-26.000000, -300.000000)" fill="#000000">
            <g transform="translate(-0.500000, 288.000000)">
                <g transform="translate(26.500000, 9.500000)">
                    <g>
                        <g  transform="translate(0.000000, 3.000000)">
                            <g >
                                <g>
                                    <path d="M8.91346154,23.5326316 C7.5,21.7136842 6.11538462,17.1663158 4.93269231,16.2 C5.39423077,17.4505263 5.42307692,18.1894737 5.39423077,19.2126316 C5.36538462,20.4063158 4.93269231,21.2021053 4.61538462,22.7652632 C4.00961538,26.2042105 5.79807692,26.8863158 8.10576923,26.8863158 C8.59615385,26.8863158 9.11538462,26.8578947 9.60576923,26.8010526 C12.1442308,26.6021053 14.0480769,25.8347368 14.3076923,24.84 C13.875,24.9821053 13.2980769,25.0957895 12.6634615,25.0957895 C11.3653846,25.1242105 9.80769231,24.6978947 8.91346154,23.5326316 L8.91346154,23.5326316 Z M9.51923077,25.7210526 C8.94230769,25.7778947 8.48076923,25.7778947 8.10576923,25.7778947 C6.98076923,25.7778947 6.25961538,25.5789474 5.91346154,25.2094737 C5.48076923,24.6978947 5.56730769,23.7031579 5.68269231,22.9357895 C5.79807692,22.3673684 5.94230769,21.8842105 6.05769231,21.4294737 C6.11538462,21.2305263 6.17307692,21.06 6.23076923,20.8610526 C6.80769231,22.1115789 7.38461538,23.3336842 8.01923077,24.1578947 C8.50961538,24.8115789 9.20192308,25.3231579 10.0096154,25.6642105 C9.83653846,25.6926316 9.69230769,25.7210526 9.51923077,25.7210526 L9.51923077,25.7210526 Z"></path>
                                    <path d="M4.03846154,22.68 C3.46153846,23.2484211 2.82692308,24.0442105 1.93269231,24.4421053 C1.18269231,24.7547368 0.461538462,25.0389474 1.55769231,25.6926316 C2.45192308,26.2326316 3.14423077,26.4884211 5.10576923,26.7157895 C3.69230769,25.6357895 4.03846154,23.7884211 4.03846154,22.68 L4.03846154,22.68 Z"></path>
                                    <path d="M14.5961538,10.1463158 C14.1346154,10.1463158 13.2115385,10.5726316 12.75,11.1410526 C11.8557692,12.2210526 11.0769231,12.6189474 10.3846154,12.6189474 C8.82692308,12.6189474 7.81730769,10.4873684 7.21153846,8.98105263 C6.89423077,8.01473684 6.95192308,6.53684211 6.23076923,6.45157895 C5.07692308,6.48 5.53846154,8.72526316 6.02884615,9.57789474 C6.51923077,10.4305263 7.00961538,10.8852632 7.67307692,13.2157895 C7.38461538,12.8463158 5.82692308,11.3968421 5.625,9.94736842 C5.36538462,8.1 4.52884615,7.07684211 4.03846154,6.99157895 L4.00961538,6.99157895 C3.51923077,6.99157895 3.25961538,8.83894737 4.41346154,10.2884211 C5.59615385,11.7663158 5.88461538,12.3063158 6.34615385,13.6705263 C6.20192308,13.5568421 4.73076923,12.4484211 4.21153846,10.6863158 C3.72115385,9.03789474 2.85576923,8.29894737 2.33653846,8.29894737 L2.25,8.29894737 C1.75961538,8.41263158 1.55769231,9.29368421 2.27884615,10.4021053 C2.91346154,11.3968421 4.09615385,12.3063158 5.19230769,13.7842105 C3.60576923,13.6421053 2.88461538,11.8515789 2.13461538,10.6294737 C1.84615385,10.1463158 1.61538462,9.97578947 1.47115385,9.97578947 C1.21153846,9.97578947 1.125,10.4021053 1.15384615,10.8 C1.24038462,11.4252632 1.26923077,11.7378947 2.36538462,12.9031579 C3.80769231,14.4947368 6.46153846,16.9389474 7.35576923,19.44 C8.91346154,23.8452632 10.875,24.7831579 12.8942308,24.7831579 C13.2692308,24.7831579 13.6730769,24.7547368 14.0769231,24.6978947 C7.41346154,20.4347368 12.2596154,13.2157895 14.3365385,11.1410526 C15.0288462,10.4305263 14.9711538,10.1463158 14.5961538,10.1463158 L14.5961538,10.1463158 Z M9.60576923,19.8663158 C9.72115385,21.0031579 10.0961538,22.0263158 10.7019231,22.9642105 C10.6730769,22.9642105 10.6730769,22.9357895 10.6442308,22.9357895 C9.77884615,22.2252632 9.02884615,20.9178947 8.39423077,19.0989474 C7.84615385,17.5642105 6.75,16.0863158 5.59615385,14.7789474 C5.68269231,14.7505263 5.74038462,14.6936842 5.82692308,14.6368421 C5.97115385,14.7221053 6.14423077,14.7505263 6.31730769,14.7505263 C6.54807692,14.7505263 6.77884615,14.6652632 6.98076923,14.5231579 C7.09615385,14.4378947 7.18269231,14.3526316 7.24038462,14.2389474 C7.35576923,14.2957895 7.5,14.3242105 7.64423077,14.3242105 C7.81730769,14.3242105 7.99038462,14.2957895 8.13461538,14.2105263 C8.50961538,14.0115789 8.74038462,13.6421053 8.74038462,13.2157895 C9.20192308,13.5284211 9.75,13.7273684 10.3557692,13.7273684 C10.6153846,13.7273684 10.8461538,13.6989474 11.1057692,13.6421053 C10.125,15.4326316 9.375,17.6494737 9.60576923,19.8663158 L9.60576923,19.8663158 Z"></path>
                                    <path d="M1.5,9.15157895 C1.67307692,8.49789474 1.5,8.35578947 1.55769231,7.87263158 C1.81730769,6.11052632 3.98076923,5.82631579 4.875,5.82631579 C5.45192308,5.82631579 6.20192308,5.96842105 6.77884615,5.96842105 C7.125,5.96842105 7.41346154,5.91157895 7.52884615,5.76947368 C8.27884615,4.80315789 6.375,4.57578947 5.50961538,4.54736842 C4.64423077,4.51894737 4.21153846,4.51894737 2.53846154,3.83684211 C3,3.69473684 3.40384615,3.63789474 3.77884615,3.63789474 C4.55769231,3.63789474 5.10576923,3.89368421 5.59615385,4.03578947 C6.08653846,4.17789474 6.63461538,4.68947368 7.29807692,4.68947368 C7.55769231,4.68947368 7.84615385,4.63263158 8.13461538,4.43368421 C9.25961538,3.75157895 7.875,2.98421053 6.86538462,2.95578947 C5.85576923,2.92736842 5.13461538,2.98421053 3.54807692,2.24526316 C3.77884615,2.18842105 4.00961538,2.16 4.24038462,2.16 C5.01923077,2.16 5.76923077,2.41578947 6.80769231,2.7 C7.61538462,2.92736842 8.22115385,3.06947368 8.65384615,3.06947368 C8.94230769,3.06947368 9.14423077,3.01263158 9.34615385,2.84210526 C10.5865385,1.79052632 8.45192308,1.50631579 7.26923077,1.50631579 C6.46153846,1.50631579 5.65384615,1.39263158 5.39423077,1.19368421 C5.65384615,1.25052632 5.59615385,1.30736842 7.32692308,1.30736842 C9.05769231,1.30736842 8.97115385,1.87578947 10.3846154,1.87578947 C11.7980769,1.87578947 11.25,0.852631579 9.92307692,0.454736842 C9.05769231,0.255789474 8.25,0.142105263 7.52884615,0.142105263 C2.22115385,0.142105263 0.0288461538,5.05894737 0.288461538,7.90105263 C0.432692308,9.49263158 0.692307692,9.97578947 0.951923077,9.97578947 C1.18269231,9.94736842 1.41346154,9.49263158 1.5,9.15157895 L1.5,9.15157895 Z"></path>
                                    <path d="M9.28846154,3.38210526 C8.74038462,4.17789474 8.39423077,4.43368421 8.22115385,5.28631579 C8.10576923,5.82631579 8.19230769,6.02526316 8.33653846,6.02526316 C8.625,6.02526316 9.23076923,5.28631579 9.51923077,4.88842105 C9.95192308,4.29157895 10.6442308,3.75157895 11.7403846,3.18315789 C11.625,3.52421053 11.3365385,3.86526316 10.7596154,4.43368421 C10.1826923,5.00210526 9.20192308,5.54210526 8.625,6.39473684 C7.93269231,7.41789474 8.30769231,7.75894737 8.68269231,7.75894737 C8.79807692,7.75894737 8.91346154,7.73052632 9,7.64526316 C9.34615385,7.38947368 9.83653846,6.56526316 10.2980769,6.02526316 C10.7596154,5.45684211 11.3076923,4.66105263 12.6346154,3.92210526 C12.5480769,4.57578947 12.2596154,5.08736842 11.2788462,5.79789474 C10.5288462,6.28105263 9.23076923,7.24736842 9.34615385,8.1 C9.375,8.41263158 9.51923077,8.52631579 9.72115385,8.52631579 C10.1826923,8.52631579 10.9326923,7.75894737 11.3076923,6.82105263 C11.5961538,6.05368421 12.8076923,5.22947368 13.3557692,4.66105263 C13.3846154,5.08736842 12.8365385,5.82631579 12.3173077,6.42315789 C11.7980769,7.02 10.9615385,7.16210526 10.8173077,8.18526316 C10.7596154,8.61157895 10.8461538,8.78210526 11.0192308,8.78210526 C11.3076923,8.78210526 11.7980769,8.32736842 12.0576923,7.98631579 C12.4615385,7.44631579 13.7596154,5.76947368 14.1346154,5.28631579 C14.1634615,5.74105263 13.875,6.42315789 13.3557692,6.90631579 C12.8942308,7.30421053 12.1730769,7.98631579 12.6923077,7.98631579 C12.7788462,7.98631579 12.9230769,7.95789474 13.125,7.90105263 C14.3653846,7.56 15.5192308,6.82105263 13.9326923,3.60947368 C13.2692308,2.24526316 12.4903846,1.73368421 11.7692308,1.73368421 C10.7019231,1.73368421 9.80769231,2.58631579 9.28846154,3.38210526 L9.28846154,3.38210526 Z"></path>
                                </g>
                            </g>
                        </g>
                    </g>
                </g>
            </g>
        </g>
    </g>
</svg>