<svg class="icn-pin" width="11px" height="16px" viewBox="0 0 11 16" version="1.1" xmlns="http://www.w3.org/2000/svg" xmlns:xlink="http://www.w3.org/1999/xlink">
    <g stroke="none" stroke-width="1" fill="none" fill-rule="evenodd">
        <g  transform="translate(-136.000000, -254.000000)" fill="#2C2C2C">
            <g transform="translate(132.000000, 221.500000)">
                <path d="M9.37025316,33 C6.68734177,33 4.5,35.1517241 4.5,37.7909483 C4.5,41.5396552 9.37025316,47.8939655 9.37025316,47.8939655 C9.37025316,47.8939655 14.2405063,41.5060345 14.2405063,37.7741379 C14.2405063,35.1349138 12.0531646,33 9.37025316,33 L9.37025316,33 Z M9.37025316,40.4133621 C7.8664557,40.4133621 6.63607595,39.2030172 6.63607595,37.7237069 C6.63607595,36.2443966 7.8664557,35.0340517 9.37025316,35.0340517 C10.8740506,35.0340517 12.1044304,36.2443966 12.1044304,37.7237069 C12.1044304,39.2030172 10.8740506,40.4133621 9.37025316,40.4133621 L9.37025316,40.4133621 Z"></path>
            </g>
        </g>
    </g>
</svg>